{
    "accessors": [
        {
            "bufferView": 12,
            "byteOffset": 0,
            "componentType": 5126,
            "count": 181,
            "max": [
                0.009772315621376038,
                0.7071016430854797,
                0.7071019411087036,
                0.386550635099411
            ],
            "min": [
                -0.38655054569244385,
                -0.707024872303009,
                -0.7070250511169434,
                -0.009772312827408314
            ],
            "name": "accessor_buffer_Bone.001_Armature_Idle_1",
            "type": "VEC4"
        },
        {
            "bufferView": 2,
            "byteOffset": 0,
            "componentType": 5126,
            "count": 292,
            "max": [
                0.6523289084434509,
                0.640802800655365
            ],
            "min": [
                0.5211643576622009,
                0.298519492149353
            ],
            "name": "accessor_buffer_Plane.027_TEXCOORD_0_0",
            "type": "VEC2"
        },
        {
            "bufferView": 1,
            "byteOffset": 0,
            "componentType": 5126,
            "count": 292,
            "max": [
                1.0,
                1.0,
                1.0
            ],
            "min": [
                -1.0,
                -1.0,
                -1.0
            ],
            "name": "accessor_buffer_Plane.027_NORMAL_0",
            "type": "VEC3"
        },
        {
            "bufferView": 10,
            "byteOffset": 0,
            "componentType": 5126,
            "count": 181,
            "max": [
                -0.01421323511749506,
                0.706963837146759,
                0.7069640755653381,
                0.4307257831096649
            ],
            "min": [
                -0.43072572350502014,
                0.560780942440033,
                0.5607810616493225,
                0.014213234186172485
            ],
            "name": "accessor_buffer_Bone.002_Armature_Idle_1",
            "type": "VEC4"
        },
        {
            "bufferView": 6,
            "byteOffset": 0,
            "componentType": 5126,
            "count": 181,
            "max": [
                5.9999999999999885
            ],
            "min": [
                0
            ],
            "name": "accessor_buffer_Armature_Idle_time_0",
            "type": "SCALAR"
        },
        {
            "bufferView": 3,
            "byteOffset": 0,
            "componentType": 5123,
            "count": 402,
            "max": [
                291
            ],
            "min": [
                0
            ],
            "name": "accessor_buffer_Plane.027_0",
            "type": "SCALAR"
        },
        {
            "bufferView": 4,
            "byteOffset": 0,
            "componentType": 5121,
            "count": 292,
            "max": [
                2,
                2,
                0,
                0
            ],
            "min": [
                0,
                0,
                0,
                0
            ],
            "name": "accessor_buffer_Plane.027_skin_0",
            "type": "VEC4"
        },
        {
            "bufferView": 8,
            "byteOffset": 0,
            "componentType": 5126,
            "count": 181,
            "max": [
                -4.577464518540353e-10,
                0.9950753450393677,
                -0.0991215854883194,
                5.1897607739048723e-11
            ],
            "min": [
                -8.896944292402509e-10,
                0.9899762272834778,
                -0.1412341594696045,
                -9.624262498064695e-11
            ],
            "name": "accessor_buffer_Bone_Armature_Idle_1",
            "type": "VEC4"
        },
        {
            "bufferView": 7,
            "byteOffset": 0,
            "componentType": 5126,
            "count": 181,
            "max": [
                -0.0029684212058782578,
                -0.08967731148004532,
                0.03032701089978218
            ],
            "min": [
                -0.0029684212058782578,
                -0.08967731148004532,
                0.03032701089978218
            ],
            "name": "accessor_buffer_Bone_Armature_Idle_0",
            "type": "VEC3"
        },
        {
            "bufferView": 0,
            "byteOffset": 0,
            "componentType": 5126,
            "count": 292,
            "max": [
                0.24407710134983063,
                0.032711006700992584,
                0.1934717744588852
            ],
            "min": [
                -0.24407805502414703,
                0.0018823532154783607,
                -0.2653873860836029
            ],
            "name": "accessor_buffer_Plane.027_POSITION_0",
            "type": "VEC3"
        },
        {
            "bufferView": 4,
            "byteOffset": 16,
            "componentType": 5126,
            "count": 292,
            "max": [
                1.0,
                0.0,
                0.0,
                0.0
            ],
            "min": [
                1.0,
                0.0,
                0.0,
                0.0
            ],
            "name": "accessor_buffer_Plane.027_skin_1",
            "type": "VEC4"
        },
        {
            "bufferView": 5,
            "byteOffset": 0,
            "componentType": 5126,
            "count": 3,
            "max": [
                3.166496753692627e-08,
                0.9999999403953552,
                1.769513069405093e-08,
                0.0,
                0.9999999403953552,
                1.0244548320770264e-08,
                0.9999999403953552,
                0.0,
                5.121962409759817e-09,
                0.9999998807907104,
                0.9999998807907104,
                0.0,
                0.008603052236139774,
                0.05996013060212135,
                -0.004587411414831877,
                1.0
            ],
            "min": [
                -0.9999999403953552,
                -0.9999999403953552,
                -3.166496043149891e-08,
                0.0,
                -0.9999999403953552,
                -4.023313238121773e-07,
                -8.841487897370826e-08,
                0.0,
                -5.121962409759817e-09,
                -2.7939677238464355e-09,
                3.1903840636005043e-07,
                0.0,
                -0.008603052236139774,
                -0.022332049906253815,
                -0.00860307551920414,
                1.0
            ],
            "name": "accessor_buffer_IBM_Butterfly.009_skin_0",
            "type": "MAT4"
        },
        {
            "bufferView": 11,
            "byteOffset": 0,
            "componentType": 5126,
            "count": 181,
            "max": [
                0.022202014923095703,
                0.06454755365848541,
                -1.8624177755555138e-08
            ],
            "min": [
                0.022202014923095703,
                0.06454753130674362,
                -2.5152862903610185e-08
            ],
            "name": "accessor_buffer_Bone.001_Armature_Idle_0",
            "type": "VEC3"
        },
        {
            "bufferView": 9,
            "byteOffset": 0,
            "componentType": 5126,
            "count": 181,
            "max": [
                -0.022202014923095703,
                0.06454755365848541,
                -1.8621042485733597e-08
            ],
            "min": [
                -0.022202014923095703,
                0.06454753130674362,
                -2.5140243664623085e-08
            ],
            "name": "accessor_buffer_Bone.002_Armature_Idle_0",
            "type": "VEC3"
        }
    ],
    "animations": [
        {
            "channels": [
                {
                    "sampler": 0,
                    "target": {
                        "node": 2,
                        "path": "translation"
                    }
                },
                {
                    "sampler": 1,
                    "target": {
                        "node": 2,
                        "path": "rotation"
                    }
                },
                {
                    "sampler": 2,
                    "target": {
                        "node": 4,
                        "path": "translation"
                    }
                },
                {
                    "sampler": 3,
                    "target": {
                        "node": 4,
                        "path": "rotation"
                    }
                },
                {
                    "sampler": 4,
                    "target": {
                        "node": 3,
                        "path": "translation"
                    }
                },
                {
                    "sampler": 5,
                    "target": {
                        "node": 3,
                        "path": "rotation"
                    }
                }
            ],
            "name": "Armature_Idle",
            "samplers": [
                {
                    "input": 4,
                    "interpolation": "LINEAR",
                    "output": 8
                },
                {
                    "input": 4,
                    "interpolation": "LINEAR",
                    "output": 7
                },
                {
                    "input": 4,
                    "interpolation": "LINEAR",
                    "output": 13
                },
                {
                    "input": 4,
                    "interpolation": "LINEAR",
                    "output": 3
                },
                {
                    "input": 4,
                    "interpolation": "LINEAR",
                    "output": 12
                },
                {
                    "input": 4,
                    "interpolation": "LINEAR",
                    "output": 0
                }
            ]
        }
    ],
    "asset": {
        "copyright": "",
        "generator": "blendergltf v1.2.0",
        "version": "2.0"
    },
    "bufferViews": [
        {
            "buffer": 0,
            "byteLength": 3504,
            "byteOffset": 0,
            "byteStride": 12,
            "name": "bufferView_buffer_Plane.027_POSITION_0",
            "target": 34962
        },
        {
            "buffer": 0,
            "byteLength": 3504,
            "byteOffset": 3504,
            "byteStride": 12,
            "name": "bufferView_buffer_Plane.027_NORMAL_0",
            "target": 34962
        },
        {
            "buffer": 0,
            "byteLength": 2336,
            "byteOffset": 7008,
            "byteStride": 8,
            "name": "bufferView_buffer_Plane.027_TEXCOORD_0_0",
            "target": 34962
        },
        {
            "buffer": 0,
            "byteLength": 808,
            "byteOffset": 9344,
            "name": "bufferView_buffer_Plane.027_0",
            "target": 34963
        },
        {
            "buffer": 0,
            "byteLength": 9344,
            "byteOffset": 10152,
            "byteStride": 32,
            "name": "bufferView_buffer_Plane.027_skin_0",
            "target": 34962
        },
        {
            "buffer": 0,
            "byteLength": 192,
            "byteOffset": 19496,
            "byteStride": 64,
            "name": "bufferView_buffer_IBM_Butterfly.009_skin_0"
        },
        {
            "buffer": 0,
            "byteLength": 724,
            "byteOffset": 19688,
            "byteStride": 4,
            "name": "bufferView_buffer_Armature_Idle_time_0"
        },
        {
            "buffer": 0,
            "byteLength": 2172,
            "byteOffset": 20412,
            "byteStride": 12,
            "name": "bufferView_buffer_Bone_Armature_Idle_0"
        },
        {
            "buffer": 0,
            "byteLength": 2896,
            "byteOffset": 22584,
            "byteStride": 16,
            "name": "bufferView_buffer_Bone_Armature_Idle_1"
        },
        {
            "buffer": 0,
            "byteLength": 2172,
            "byteOffset": 25480,
            "byteStride": 12,
            "name": "bufferView_buffer_Bone.002_Armature_Idle_0"
        },
        {
            "buffer": 0,
            "byteLength": 2896,
            "byteOffset": 27652,
            "byteStride": 16,
            "name": "bufferView_buffer_Bone.002_Armature_Idle_1"
        },
        {
            "buffer": 0,
            "byteLength": 2172,
            "byteOffset": 30548,
            "byteStride": 12,
            "name": "bufferView_buffer_Bone.001_Armature_Idle_0"
        },
        {
            "buffer": 0,
            "byteLength": 2896,
            "byteOffset": 32720,
            "byteStride": 16,
            "name": "bufferView_buffer_Bone.001_Armature_Idle_1"
        }
    ],
    "buffers": [
        {
            "byteLength": 35616,
            "name": "buffer_B2",
            "uri": "data:application/octet-stream;base64,"
        }
    ],
    "images": [
        {
            "mimeType": "image/png",
            "name": "ColorAtlas.png.012",
            "uri": "data:image/png;base64,"
        }
    ],
    "materials": [
        {
            "alphaMode": "OPAQUE",
            "doubleSided": false,
            "emissiveFactor": [
                0.0,
                0.0,
                0.0
            ],
            "name": "Mat_ColorAtlas",
            "pbrMetallicRoughness": {
                "baseColorFactor": [
                    0.800000011920929,
                    0.800000011920929,
                    0.800000011920929,
                    1.0
                ],
                "baseColorTexture": {
                    "index": 0,
                    "texCoord": 0
                },
                "metallicFactor": 0.0,
                "roughnessFactor": 1.0
            }
        }
    ],
    "meshes": [
        {
            "name": "Plane.027",
            "primitives": [
                {
                    "attributes": {
                        "JOINTS_0": 6,
                        "NORMAL": 2,
                        "POSITION": 9,
                        "TEXCOORD_0": 1,
                        "WEIGHTS_0": 10
                    },
                    "indices": 5,
                    "material": 0,
                    "mode": 4
                }
            ]
        }
    ],
    "nodes": [
        {
            "children": [
                1,
                2
            ],
            "name": "Armature",
            "rotation": [
                -0.8176112174987793,
                0.17744578421115875,
                0.3579038679599762,
                0.4146440625190735
            ],
            "scale": [
                -0.5391798615455627,
                -0.5391799211502075,
                -0.5391799211502075
            ],
            "translation": [
                -10.421860694885254,
                3.4807300567626953,
                -6.784419536590576
            ]
        },
        {
            "mesh": 0,
            "name": "Butterfly.009",
            "rotation": [
                -0.7071068286895752,
                -2.4530789843879575e-08,
                3.654922409168648e-08,
                0.7071067094802856
            ],
            "scale": [
                1.0,
                1.0,
                0.9999998807907104
            ],
            "skin": 0,
            "translation": [
                0.0001304149627685547,
                -8.58306884765625e-06,
                0.013355255126953125
            ]
        },
        {
            "children": [
                3,
                4
            ],
            "name": "Armature.013_Bone",
            "rotation": [
                0.0,
                1.0,
                1.6544129266549135e-07,
                0.0
            ],
            "scale": [
                1.0,
                1.0,
                1.0
            ],
            "translation": [
                0.0,
                -0.059967041015625,
                0.004753115586936474
            ]
        },
        {
            "name": "Armature.013_Bone.001",
            "rotation": [
                -0.4999999701976776,
                -0.4999999701976776,
                -0.5000001192092896,
                0.5000001192092896
            ],
            "scale": [
                1.0,
                1.0,
                1.0
            ],
            "translation": [
                0.022202014923095703,
                0.06454753875732422,
                -2.0958641044899196e-08
            ]
        },
        {
            "name": "Armature.013_Bone.002",
            "rotation": [
                -0.4999999701976776,
                0.4999999701976776,
                0.5000001192092896,
                0.5000001192092896
            ],
            "scale": [
                1.0,
                1.0,
                1.0
            ],
            "translation": [
                -0.022202014923095703,
                0.06454753875732422,
                -2.0958641044899196e-08
            ]
        }
    ],
    "samplers": [
        {
            "magFilter": 9729,
            "minFilter": 9987,
            "name": "DiffuseColorAtlas.001",
            "wrapS": 10497,
            "wrapT": 10497
        }
    ],
    "scene": 0,
    "scenes": [
        {
            "extras": {
                "background_color": [
                    0.05087608844041824,
                    0.05087608844041824,
                    0.05087608844041824
                ],
                "frames_per_second": 30,
                "obj1": "Roundcube",
                "screencast_keys_box_draw": 0,
                "screencast_keys_font_size": 24,
                "screencast_keys_mouse": 2,
                "screencast_keys_pos_x": 75,
                "screencast_keys_pos_y": 4
            },
            "name": "Scene",
            "nodes": [
                0
            ]
        }
    ],
    "skins": [
        {
            "inverseBindMatrices": 11,
            "joints": [
                2,
                3,
                4
            ],
            "name": "Butterfly.009",
            "skeleton": 2
        }
    ],
    "textures": [
        {
            "name": "DiffuseColorAtlas.001",
            "sampler": 0,
            "source": 0
        }
    ]
}
