{
    "accessors": [
        {
            "bufferView": 4,
            "byteOffset": 0,
            "componentType": 5121,
            "count": 292,
            "max": [
                2,
                2,
                0,
                0
            ],
            "min": [
                0,
                0,
                0,
                0
            ],
            "name": "accessor_buffer_Plane.024_skin_0",
            "type": "VEC4"
        },
        {
            "bufferView": 0,
            "byteOffset": 0,
            "componentType": 5126,
            "count": 292,
            "max": [
                0.24407710134983063,
                0.032711006700992584,
                0.1934717744588852
            ],
            "min": [
                -0.24407805502414703,
                0.0018823532154783607,
                -0.2653873860836029
            ],
            "name": "accessor_buffer_Plane.024_POSITION_0",
            "type": "VEC3"
        },
        {
            "bufferView": 11,
            "byteOffset": 0,
            "componentType": 5126,
            "count": 181,
            "max": [
                0.022202014923095703,
                0.06454755365848541,
                -1.8624177755555138e-08
            ],
            "min": [
                0.022202014923095703,
                0.06454753130674362,
                -2.5152862903610185e-08
            ],
            "name": "accessor_buffer_Bone.001_Armature_Idle_0",
            "type": "VEC3"
        },
        {
            "bufferView": 10,
            "byteOffset": 0,
            "componentType": 5126,
            "count": 181,
            "max": [
                -4.577464518540353e-10,
                0.9950753450393677,
                -0.0991215854883194,
                5.1897607739048723e-11
            ],
            "min": [
                -8.896944292402509e-10,
                0.9899762272834778,
                -0.1412341594696045,
                -9.624262498064695e-11
            ],
            "name": "accessor_buffer_Bone_Armature_Idle_1",
            "type": "VEC4"
        },
        {
            "bufferView": 1,
            "byteOffset": 0,
            "componentType": 5126,
            "count": 292,
            "max": [
                1.0,
                1.0,
                1.0
            ],
            "min": [
                -1.0,
                -1.0,
                -1.0
            ],
            "name": "accessor_buffer_Plane.024_NORMAL_0",
            "type": "VEC3"
        },
        {
            "bufferView": 5,
            "byteOffset": 0,
            "componentType": 5126,
            "count": 3,
            "max": [
                1.4137668813418713e-09,
                1.0000001192092896,
                9.31322685637781e-10,
                0.0,
                1.000000238418579,
                1.127489213104127e-10,
                1.000000238418579,
                0.0,
                5.096201505239151e-08,
                1.0,
                1.0,
                0.0,
                0.008599535562098026,
                0.05995778739452362,
                -0.0045897564850747585,
                1.0
            ],
            "min": [
                -1.0000001192092896,
                -1.0000001192092896,
                -1.413766548274964e-09,
                0.0,
                -1.000000238418579,
                -4.161053652751434e-07,
                -1.0218880674983666e-07,
                0.0,
                -5.096201505239151e-08,
                -9.313225746154785e-10,
                3.6487847410171526e-07,
                0.0,
                -0.008599535562098026,
                -0.022333160042762756,
                -0.008599558845162392,
                1.0
            ],
            "name": "accessor_buffer_IBM_Butterfly.007_skin_0",
            "type": "MAT4"
        },
        {
            "bufferView": 8,
            "byteOffset": 0,
            "componentType": 5126,
            "count": 181,
            "max": [
                -0.01421323511749506,
                0.706963837146759,
                0.7069640755653381,
                0.4307257831096649
            ],
            "min": [
                -0.43072572350502014,
                0.560780942440033,
                0.5607810616493225,
                0.014213234186172485
            ],
            "name": "accessor_buffer_Bone.002_Armature_Idle_1",
            "type": "VEC4"
        },
        {
            "bufferView": 4,
            "byteOffset": 16,
            "componentType": 5126,
            "count": 292,
            "max": [
                1.0,
                0.0,
                0.0,
                0.0
            ],
            "min": [
                1.0,
                0.0,
                0.0,
                0.0
            ],
            "name": "accessor_buffer_Plane.024_skin_1",
            "type": "VEC4"
        },
        {
            "bufferView": 7,
            "byteOffset": 0,
            "componentType": 5126,
            "count": 181,
            "max": [
                -0.022202014923095703,
                0.06454755365848541,
                -1.8621042485733597e-08
            ],
            "min": [
                -0.022202014923095703,
                0.06454753130674362,
                -2.5140243664623085e-08
            ],
            "name": "accessor_buffer_Bone.002_Armature_Idle_0",
            "type": "VEC3"
        },
        {
            "bufferView": 9,
            "byteOffset": 0,
            "componentType": 5126,
            "count": 181,
            "max": [
                -0.0029684212058782578,
                -0.08967731148004532,
                0.03032701089978218
            ],
            "min": [
                -0.0029684212058782578,
                -0.08967731148004532,
                0.03032701089978218
            ],
            "name": "accessor_buffer_Bone_Armature_Idle_0",
            "type": "VEC3"
        },
        {
            "bufferView": 6,
            "byteOffset": 0,
            "componentType": 5126,
            "count": 181,
            "max": [
                5.9999999999999885
            ],
            "min": [
                0
            ],
            "name": "accessor_buffer_Armature_Idle_time_0",
            "type": "SCALAR"
        },
        {
            "bufferView": 2,
            "byteOffset": 0,
            "componentType": 5126,
            "count": 292,
            "max": [
                0.6523289084434509,
                0.640802800655365
            ],
            "min": [
                0.5211643576622009,
                0.298519492149353
            ],
            "name": "accessor_buffer_Plane.024_TEXCOORD_0_0",
            "type": "VEC2"
        },
        {
            "bufferView": 3,
            "byteOffset": 0,
            "componentType": 5123,
            "count": 402,
            "max": [
                291
            ],
            "min": [
                0
            ],
            "name": "accessor_buffer_Plane.024_0",
            "type": "SCALAR"
        },
        {
            "bufferView": 12,
            "byteOffset": 0,
            "componentType": 5126,
            "count": 181,
            "max": [
                0.009772315621376038,
                0.7071016430854797,
                0.7071019411087036,
                0.386550635099411
            ],
            "min": [
                -0.38655054569244385,
                -0.707024872303009,
                -0.7070250511169434,
                -0.009772312827408314
            ],
            "name": "accessor_buffer_Bone.001_Armature_Idle_1",
            "type": "VEC4"
        }
    ],
    "animations": [
        {
            "channels": [
                {
                    "sampler": 0,
                    "target": {
                        "node": 4,
                        "path": "translation"
                    }
                },
                {
                    "sampler": 1,
                    "target": {
                        "node": 4,
                        "path": "rotation"
                    }
                },
                {
                    "sampler": 2,
                    "target": {
                        "node": 2,
                        "path": "translation"
                    }
                },
                {
                    "sampler": 3,
                    "target": {
                        "node": 2,
                        "path": "rotation"
                    }
                },
                {
                    "sampler": 4,
                    "target": {
                        "node": 3,
                        "path": "translation"
                    }
                },
                {
                    "sampler": 5,
                    "target": {
                        "node": 3,
                        "path": "rotation"
                    }
                }
            ],
            "name": "Armature_Idle",
            "samplers": [
                {
                    "input": 10,
                    "interpolation": "LINEAR",
                    "output": 8
                },
                {
                    "input": 10,
                    "interpolation": "LINEAR",
                    "output": 6
                },
                {
                    "input": 10,
                    "interpolation": "LINEAR",
                    "output": 9
                },
                {
                    "input": 10,
                    "interpolation": "LINEAR",
                    "output": 3
                },
                {
                    "input": 10,
                    "interpolation": "LINEAR",
                    "output": 2
                },
                {
                    "input": 10,
                    "interpolation": "LINEAR",
                    "output": 13
                }
            ]
        }
    ],
    "asset": {
        "copyright": "",
        "generator": "blendergltf v1.2.0",
        "version": "2.0"
    },
    "bufferViews": [
        {
            "buffer": 0,
            "byteLength": 3504,
            "byteOffset": 0,
            "byteStride": 12,
            "name": "bufferView_buffer_Plane.024_POSITION_0",
            "target": 34962
        },
        {
            "buffer": 0,
            "byteLength": 3504,
            "byteOffset": 3504,
            "byteStride": 12,
            "name": "bufferView_buffer_Plane.024_NORMAL_0",
            "target": 34962
        },
        {
            "buffer": 0,
            "byteLength": 2336,
            "byteOffset": 7008,
            "byteStride": 8,
            "name": "bufferView_buffer_Plane.024_TEXCOORD_0_0",
            "target": 34962
        },
        {
            "buffer": 0,
            "byteLength": 808,
            "byteOffset": 9344,
            "name": "bufferView_buffer_Plane.024_0",
            "target": 34963
        },
        {
            "buffer": 0,
            "byteLength": 9344,
            "byteOffset": 10152,
            "byteStride": 32,
            "name": "bufferView_buffer_Plane.024_skin_0",
            "target": 34962
        },
        {
            "buffer": 0,
            "byteLength": 192,
            "byteOffset": 19496,
            "byteStride": 64,
            "name": "bufferView_buffer_IBM_Butterfly.007_skin_0"
        },
        {
            "buffer": 0,
            "byteLength": 724,
            "byteOffset": 19688,
            "byteStride": 4,
            "name": "bufferView_buffer_Armature_Idle_time_0"
        },
        {
            "buffer": 0,
            "byteLength": 2172,
            "byteOffset": 20412,
            "byteStride": 12,
            "name": "bufferView_buffer_Bone.002_Armature_Idle_0"
        },
        {
            "buffer": 0,
            "byteLength": 2896,
            "byteOffset": 22584,
            "byteStride": 16,
            "name": "bufferView_buffer_Bone.002_Armature_Idle_1"
        },
        {
            "buffer": 0,
            "byteLength": 2172,
            "byteOffset": 25480,
            "byteStride": 12,
            "name": "bufferView_buffer_Bone_Armature_Idle_0"
        },
        {
            "buffer": 0,
            "byteLength": 2896,
            "byteOffset": 27652,
            "byteStride": 16,
            "name": "bufferView_buffer_Bone_Armature_Idle_1"
        },
        {
            "buffer": 0,
            "byteLength": 2172,
            "byteOffset": 30548,
            "byteStride": 12,
            "name": "bufferView_buffer_Bone.001_Armature_Idle_0"
        },
        {
            "buffer": 0,
            "byteLength": 2896,
            "byteOffset": 32720,
            "byteStride": 16,
            "name": "bufferView_buffer_Bone.001_Armature_Idle_1"
        }
    ],
    "buffers": [
        {
            "byteLength": 35616,
            "name": "buffer_B4",
            "uri": "data:application/octet-stream;base64,"
        }
    ],
    "images": [
        {
            "mimeType": "image/png",
            "name": "ColorAtlas.png.001",
            "uri": "data:image/png;base64,"
        },
        {
            "mimeType": "image/png",
            "name": "ColorAtlasEmisor.png",
            "uri": "data:image/png;base64,"
        }
    ],
    "materials": [
        {
            "alphaMode": "OPAQUE",
            "doubleSided": false,
            "emissiveFactor": [
                0.0,
                0.0,
                0.0
            ],
            "emissiveTexture": {
                "index": 1,
                "texCoord": 0
            },
            "name": "Mat_ColorAtlas",
            "pbrMetallicRoughness": {
                "baseColorFactor": [
                    0.800000011920929,
                    0.800000011920929,
                    0.800000011920929,
                    1.0
                ],
                "baseColorTexture": {
                    "index": 0,
                    "texCoord": 0
                },
                "metallicFactor": 0.0,
                "roughnessFactor": 1.0
            }
        }
    ],
    "meshes": [
        {
            "name": "Plane.024",
            "primitives": [
                {
                    "attributes": {
                        "JOINTS_0": 0,
                        "NORMAL": 4,
                        "POSITION": 1,
                        "TEXCOORD_0": 11,
                        "WEIGHTS_0": 7
                    },
                    "indices": 12,
                    "material": 0,
                    "mode": 4
                }
            ]
        }
    ],
    "nodes": [
        {
            "children": [
                1,
                2
            ],
            "name": "Armature",
            "rotation": [
                -0.8908562660217285,
                -0.007397385314106941,
                -0.0037709579337388277,
                0.4542093873023987
            ],
            "scale": [
                -0.8165404796600342,
                -0.8165404200553894,
                -0.8165404796600342
            ],
            "translation": [
                -0.8869364857673645,
                15.771475791931152,
                -0.2455112487077713
            ]
        },
        {
            "mesh": 0,
            "name": "Butterfly.007",
            "rotation": [
                -0.7071068286895752,
                5.199208885642292e-07,
                3.6796183167098206e-07,
                0.7071067094802856
            ],
            "scale": [
                1.0000001192092896,
                1.0000001192092896,
                1.0
            ],
            "skin": 0,
            "translation": [
                0.00013118982315063477,
                -9.5367431640625e-06,
                0.013355255126953125
            ]
        },
        {
            "children": [
                3,
                4
            ],
            "name": "Armature.007_Bone",
            "rotation": [
                0.0,
                1.0,
                1.6544129266549135e-07,
                0.0
            ],
            "scale": [
                1.0,
                1.0,
                1.0
            ],
            "translation": [
                0.0,
                -0.059967041015625,
                0.004753115586936474
            ]
        },
        {
            "name": "Armature.007_Bone.001",
            "rotation": [
                -0.4999999701976776,
                -0.4999999701976776,
                -0.5000001192092896,
                0.5000001192092896
            ],
            "scale": [
                1.0,
                1.0,
                1.0
            ],
            "translation": [
                0.022202014923095703,
                0.06454753875732422,
                -2.0958641044899196e-08
            ]
        },
        {
            "name": "Armature.007_Bone.002",
            "rotation": [
                -0.4999999701976776,
                0.4999999701976776,
                0.5000001192092896,
                0.5000001192092896
            ],
            "scale": [
                1.0,
                1.0,
                1.0
            ],
            "translation": [
                -0.022202014923095703,
                0.06454753875732422,
                -2.0958641044899196e-08
            ]
        }
    ],
    "samplers": [
        {
            "magFilter": 9729,
            "minFilter": 9987,
            "name": "DiffuseColorAtlas",
            "wrapS": 10497,
            "wrapT": 10497
        },
        {
            "magFilter": 9729,
            "minFilter": 9987,
            "name": "EmisorColorAtlas",
            "wrapS": 10497,
            "wrapT": 10497
        }
    ],
    "scene": 0,
    "scenes": [
        {
            "extras": {
                "background_color": [
                    0.05087608844041824,
                    0.05087608844041824,
                    0.05087608844041824
                ],
                "frames_per_second": 30,
                "obj1": "Roundcube",
                "screencast_keys_box_draw": 0,
                "screencast_keys_font_size": 24,
                "screencast_keys_mouse": 2,
                "screencast_keys_pos_x": 75,
                "screencast_keys_pos_y": 4
            },
            "name": "Scene",
            "nodes": [
                0
            ]
        }
    ],
    "skins": [
        {
            "inverseBindMatrices": 5,
            "joints": [
                2,
                3,
                4
            ],
            "name": "Butterfly.007",
            "skeleton": 2
        }
    ],
    "textures": [
        {
            "name": "DiffuseColorAtlas",
            "sampler": 0,
            "source": 0
        },
        {
            "name": "EmisorColorAtlas",
            "sampler": 1,
            "source": 1
        }
    ]
}
