{
    "accessors": [
        {
            "bufferView": 9,
            "byteOffset": 0,
            "componentType": 5126,
            "count": 181,
            "max": [
                1.8180805444717407,
                2.966557741165161,
                0.12447785586118698
            ],
            "min": [
                -1.3355786800384521,
                -0.21606431901454926,
                -0.44894304871559143
            ],
            "name": "accessor_buffer_Bone_Armature_Idle_0",
            "type": "VEC3"
        },
        {
            "bufferView": 12,
            "byteOffset": 0,
            "componentType": 5126,
            "count": 181,
            "max": [
                -0.24063268303871155,
                -0.16396759450435638,
                -0.16396775841712952,
                0.6878333687782288
            ],
            "min": [
                -0.6878331899642944,
                -0.6649028062820435,
                -0.6649031043052673,
                0.24063263833522797
            ],
            "name": "accessor_buffer_Bone.001_Armature_Idle_1",
            "type": "VEC4"
        },
        {
            "bufferView": 10,
            "byteOffset": 0,
            "componentType": 5126,
            "count": 181,
            "max": [
                0.99998939037323,
                0.9999989867210388,
                1.9160664521677973e-07,
                8.876268964286282e-08
            ],
            "min": [
                -0.7024436593055725,
                -0.6761291027069092,
                -1.5424464550051198e-07,
                -1.7477385938491352e-07
            ],
            "name": "accessor_buffer_Bone_Armature_Idle_1",
            "type": "VEC4"
        },
        {
            "bufferView": 0,
            "byteOffset": 0,
            "componentType": 5126,
            "count": 292,
            "max": [
                0.24407710134983063,
                0.032711006700992584,
                0.1934717744588852
            ],
            "min": [
                -0.24407805502414703,
                0.0018823532154783607,
                -0.2653873860836029
            ],
            "name": "accessor_buffer_Plane.020_POSITION_0",
            "type": "VEC3"
        },
        {
            "bufferView": 3,
            "byteOffset": 0,
            "componentType": 5123,
            "count": 402,
            "max": [
                291
            ],
            "min": [
                0
            ],
            "name": "accessor_buffer_Plane.020_0",
            "type": "SCALAR"
        },
        {
            "bufferView": 8,
            "byteOffset": 0,
            "componentType": 5126,
            "count": 181,
            "max": [
                -0.0910368263721466,
                0.7012218832969666,
                0.7012221813201904,
                0.6480078101158142
            ],
            "min": [
                -0.6480076313018799,
                0.2829945981502533,
                0.2829947769641876,
                0.09103676676750183
            ],
            "name": "accessor_buffer_Bone.002_Armature_Idle_1",
            "type": "VEC4"
        },
        {
            "bufferView": 4,
            "byteOffset": 16,
            "componentType": 5126,
            "count": 292,
            "max": [
                1.0,
                0.0,
                0.0,
                0.0
            ],
            "min": [
                1.0,
                0.0,
                0.0,
                0.0
            ],
            "name": "accessor_buffer_Plane.020_skin_1",
            "type": "VEC4"
        },
        {
            "bufferView": 11,
            "byteOffset": 0,
            "componentType": 5126,
            "count": 181,
            "max": [
                0.022202350199222565,
                0.06454771757125854,
                1.4128984204830886e-08
            ],
            "min": [
                0.022201545536518097,
                0.0645473450422287,
                -8.678026119923743e-08
            ],
            "name": "accessor_buffer_Bone.001_Armature_Idle_0",
            "type": "VEC3"
        },
        {
            "bufferView": 1,
            "byteOffset": 0,
            "componentType": 5126,
            "count": 292,
            "max": [
                1.0,
                1.0,
                1.0
            ],
            "min": [
                -1.0,
                -1.0,
                -1.0
            ],
            "name": "accessor_buffer_Plane.020_NORMAL_0",
            "type": "VEC3"
        },
        {
            "bufferView": 4,
            "byteOffset": 0,
            "componentType": 5121,
            "count": 292,
            "max": [
                2,
                2,
                0,
                0
            ],
            "min": [
                0,
                0,
                0,
                0
            ],
            "name": "accessor_buffer_Plane.020_skin_0",
            "type": "VEC4"
        },
        {
            "bufferView": 7,
            "byteOffset": 0,
            "componentType": 5126,
            "count": 181,
            "max": [
                -0.022201748564839363,
                0.06454779207706451,
                4.956937971201114e-09
            ],
            "min": [
                -0.02220236510038376,
                0.06454724073410034,
                -7.1674406854072e-08
            ],
            "name": "accessor_buffer_Bone.002_Armature_Idle_0",
            "type": "VEC3"
        },
        {
            "bufferView": 6,
            "byteOffset": 0,
            "componentType": 5126,
            "count": 181,
            "max": [
                5.9999999999999885
            ],
            "min": [
                0
            ],
            "name": "accessor_buffer_Armature_Idle_time_0",
            "type": "SCALAR"
        },
        {
            "bufferView": 2,
            "byteOffset": 0,
            "componentType": 5126,
            "count": 292,
            "max": [
                0.6523289084434509,
                0.6426297724246979
            ],
            "min": [
                0.09733623266220093,
                0.345394492149353
            ],
            "name": "accessor_buffer_Plane.020_TEXCOORD_0_0",
            "type": "VEC2"
        },
        {
            "bufferView": 5,
            "byteOffset": 0,
            "componentType": 5126,
            "count": 3,
            "max": [
                0.0,
                1.0,
                0.0,
                0.0,
                1.0,
                3.552713678800501e-15,
                1.0,
                0.0,
                2.0023122715429054e-08,
                0.9999999403953552,
                0.9999999403953552,
                0.0,
                0.008602110669016838,
                0.059958118945360184,
                -0.004589425399899483,
                1.0
            ],
            "min": [
                -1.0,
                -1.0,
                0.0,
                0.0,
                -1.0,
                -4.0133926404450904e-07,
                -8.742278367890322e-08,
                0.0,
                -2.0023122715429054e-08,
                0.0,
                3.339395675538981e-07,
                0.0,
                -0.008602110669016838,
                -0.022333145141601562,
                -0.008602133952081203,
                1.0
            ],
            "name": "accessor_buffer_IBM_Butterfly.004_skin_0",
            "type": "MAT4"
        }
    ],
    "animations": [
        {
            "channels": [
                {
                    "sampler": 0,
                    "target": {
                        "node": 4,
                        "path": "translation"
                    }
                },
                {
                    "sampler": 1,
                    "target": {
                        "node": 4,
                        "path": "rotation"
                    }
                },
                {
                    "sampler": 2,
                    "target": {
                        "node": 2,
                        "path": "translation"
                    }
                },
                {
                    "sampler": 3,
                    "target": {
                        "node": 2,
                        "path": "rotation"
                    }
                },
                {
                    "sampler": 4,
                    "target": {
                        "node": 3,
                        "path": "translation"
                    }
                },
                {
                    "sampler": 5,
                    "target": {
                        "node": 3,
                        "path": "rotation"
                    }
                }
            ],
            "name": "Armature_Idle",
            "samplers": [
                {
                    "input": 11,
                    "interpolation": "LINEAR",
                    "output": 10
                },
                {
                    "input": 11,
                    "interpolation": "LINEAR",
                    "output": 5
                },
                {
                    "input": 11,
                    "interpolation": "LINEAR",
                    "output": 0
                },
                {
                    "input": 11,
                    "interpolation": "LINEAR",
                    "output": 2
                },
                {
                    "input": 11,
                    "interpolation": "LINEAR",
                    "output": 7
                },
                {
                    "input": 11,
                    "interpolation": "LINEAR",
                    "output": 1
                }
            ]
        }
    ],
    "asset": {
        "copyright": "",
        "generator": "blendergltf v1.2.0",
        "version": "2.0"
    },
    "bufferViews": [
        {
            "buffer": 0,
            "byteLength": 3504,
            "byteOffset": 0,
            "byteStride": 12,
            "name": "bufferView_buffer_Plane.020_POSITION_0",
            "target": 34962
        },
        {
            "buffer": 0,
            "byteLength": 3504,
            "byteOffset": 3504,
            "byteStride": 12,
            "name": "bufferView_buffer_Plane.020_NORMAL_0",
            "target": 34962
        },
        {
            "buffer": 0,
            "byteLength": 2336,
            "byteOffset": 7008,
            "byteStride": 8,
            "name": "bufferView_buffer_Plane.020_TEXCOORD_0_0",
            "target": 34962
        },
        {
            "buffer": 0,
            "byteLength": 808,
            "byteOffset": 9344,
            "name": "bufferView_buffer_Plane.020_0",
            "target": 34963
        },
        {
            "buffer": 0,
            "byteLength": 9344,
            "byteOffset": 10152,
            "byteStride": 32,
            "name": "bufferView_buffer_Plane.020_skin_0",
            "target": 34962
        },
        {
            "buffer": 0,
            "byteLength": 192,
            "byteOffset": 19496,
            "byteStride": 64,
            "name": "bufferView_buffer_IBM_Butterfly.004_skin_0"
        },
        {
            "buffer": 0,
            "byteLength": 724,
            "byteOffset": 19688,
            "byteStride": 4,
            "name": "bufferView_buffer_Armature_Idle_time_0"
        },
        {
            "buffer": 0,
            "byteLength": 2172,
            "byteOffset": 20412,
            "byteStride": 12,
            "name": "bufferView_buffer_Bone.002_Armature_Idle_0"
        },
        {
            "buffer": 0,
            "byteLength": 2896,
            "byteOffset": 22584,
            "byteStride": 16,
            "name": "bufferView_buffer_Bone.002_Armature_Idle_1"
        },
        {
            "buffer": 0,
            "byteLength": 2172,
            "byteOffset": 25480,
            "byteStride": 12,
            "name": "bufferView_buffer_Bone_Armature_Idle_0"
        },
        {
            "buffer": 0,
            "byteLength": 2896,
            "byteOffset": 27652,
            "byteStride": 16,
            "name": "bufferView_buffer_Bone_Armature_Idle_1"
        },
        {
            "buffer": 0,
            "byteLength": 2172,
            "byteOffset": 30548,
            "byteStride": 12,
            "name": "bufferView_buffer_Bone.001_Armature_Idle_0"
        },
        {
            "buffer": 0,
            "byteLength": 2896,
            "byteOffset": 32720,
            "byteStride": 16,
            "name": "bufferView_buffer_Bone.001_Armature_Idle_1"
        }
    ],
    "buffers": [
        {
            "byteLength": 35616,
            "name": "buffer_B5",
            "uri": "data:application/octet-stream;base64,"
        }
    ],
    "images": [
        {
            "mimeType": "image/png",
            "name": "ColorAtlas.png.001",
            "uri": "data:image/png;base64,"
        },
        {
            "mimeType": "image/png",
            "name": "ColorAtlasEmisor.png",
            "uri": "data:image/png;base64,"
        }
    ],
    "materials": [
        {
            "alphaMode": "OPAQUE",
            "doubleSided": false,
            "emissiveFactor": [
                0.0,
                0.0,
                0.0
            ],
            "emissiveTexture": {
                "index": 1,
                "texCoord": 0
            },
            "name": "Mat_ColorAtlas",
            "pbrMetallicRoughness": {
                "baseColorFactor": [
                    0.800000011920929,
                    0.800000011920929,
                    0.800000011920929,
                    1.0
                ],
                "baseColorTexture": {
                    "index": 0,
                    "texCoord": 0
                },
                "metallicFactor": 0.0,
                "roughnessFactor": 1.0
            }
        }
    ],
    "meshes": [
        {
            "name": "Plane.020",
            "primitives": [
                {
                    "attributes": {
                        "JOINTS_0": 9,
                        "NORMAL": 8,
                        "POSITION": 3,
                        "TEXCOORD_0": 12,
                        "WEIGHTS_0": 6
                    },
                    "indices": 4,
                    "material": 0,
                    "mode": 4
                }
            ]
        }
    ],
    "nodes": [
        {
            "children": [
                1,
                2
            ],
            "name": "Armature",
            "rotation": [
                0.7071068286895752,
                0.0,
                0.0,
                0.7071067094802856
            ],
            "scale": [
                1.0,
                1.0,
                1.0
            ],
            "translation": [
                -1.1756525039672852,
                9.951568603515625,
                -0.2823253870010376
            ]
        },
        {
            "mesh": 0,
            "name": "Butterfly.004",
            "rotation": [
                -0.7071068286895752,
                3.7159041581492577e-16,
                -2.6341797632056796e-09,
                0.7071067094802856
            ],
            "scale": [
                1.0,
                1.0,
                0.9999999403953552
            ],
            "skin": 0,
            "translation": [
                0.00013124942779541016,
                -8.940696716308594e-06,
                0.013356208801269531
            ]
        },
        {
            "children": [
                3,
                4
            ],
            "name": "Armature.005_Bone",
            "rotation": [
                0.0,
                1.0,
                1.6544129266549135e-07,
                0.0
            ],
            "scale": [
                1.0,
                1.0,
                1.0
            ],
            "translation": [
                0.0,
                -0.059967041015625,
                0.004753115586936474
            ]
        },
        {
            "name": "Armature.005_Bone.001",
            "rotation": [
                -0.4999999701976776,
                -0.4999999701976776,
                -0.5000001192092896,
                0.5000001192092896
            ],
            "scale": [
                1.0,
                1.0,
                1.0
            ],
            "translation": [
                0.022202014923095703,
                0.06454753875732422,
                -2.0958641044899196e-08
            ]
        },
        {
            "name": "Armature.005_Bone.002",
            "rotation": [
                -0.4999999701976776,
                0.4999999701976776,
                0.5000001192092896,
                0.5000001192092896
            ],
            "scale": [
                1.0,
                1.0,
                1.0
            ],
            "translation": [
                -0.022202014923095703,
                0.06454753875732422,
                -2.0958641044899196e-08
            ]
        }
    ],
    "samplers": [
        {
            "magFilter": 9729,
            "minFilter": 9987,
            "name": "DiffuseColorAtlas",
            "wrapS": 10497,
            "wrapT": 10497
        },
        {
            "magFilter": 9729,
            "minFilter": 9987,
            "name": "EmisorColorAtlas",
            "wrapS": 10497,
            "wrapT": 10497
        }
    ],
    "scene": 0,
    "scenes": [
        {
            "extras": {
                "background_color": [
                    0.05087608844041824,
                    0.05087608844041824,
                    0.05087608844041824
                ],
                "frames_per_second": 30,
                "obj1": "Roundcube",
                "screencast_keys_box_draw": 0,
                "screencast_keys_font_size": 24,
                "screencast_keys_mouse": 2,
                "screencast_keys_pos_x": 75,
                "screencast_keys_pos_y": 4
            },
            "name": "Scene",
            "nodes": [
                0
            ]
        }
    ],
    "skins": [
        {
            "inverseBindMatrices": 13,
            "joints": [
                2,
                3,
                4
            ],
            "name": "Butterfly.004",
            "skeleton": 2
        }
    ],
    "textures": [
        {
            "name": "DiffuseColorAtlas",
            "sampler": 0,
            "source": 0
        },
        {
            "name": "EmisorColorAtlas",
            "sampler": 1,
            "source": 1
        }
    ]
}
