{
    "accessors" : [
        {
            "bufferView" : 0, 
            "componentType" : 5123, 
            "count" : 2706, 
            "max" : [
                2705
            ], 
            "min" : [
                0
            ], 
            "type" : "SCALAR"
        }, 
        {
            "bufferView" : 1, 
            "componentType" : 5126, 
            "count" : 2706, 
            "max" : [
                6.450405597686768, 
                17.27608871459961, 
                6.4053497314453125
            ], 
            "min" : [
                -6.245924472808838, 
                0.13785037398338318, 
                -6.617315769195557
            ], 
            "type" : "VEC3"
        }, 
        {
            "bufferView" : 2, 
            "componentType" : 5126, 
            "count" : 2706, 
            "max" : [
                0.9971182942390442, 
                0.9842658638954163, 
                0.9993956089019775
            ], 
            "min" : [
                -0.9999107122421265, 
                -0.9985412359237671, 
                -0.9962894320487976
            ], 
            "type" : "VEC3"
        }, 
        {
            "bufferView" : 3, 
            "componentType" : 5126, 
            "count" : 2706, 
            "max" : [
                0.7792222499847412, 
                0.49273598194122314, 
                0.9999997019767761, 
                1.0
            ], 
            "min" : [
                -0.9999990463256836, 
                -0.3632744550704956, 
                -0.8099936842918396, 
                -1.0
            ], 
            "type" : "VEC4"
        }, 
        {
            "bufferView" : 4, 
            "componentType" : 5126, 
            "count" : 2706, 
            "max" : [
                0.5744332671165466, 
                0.33022046089172363
            ], 
            "min" : [
                0.19381728768348694, 
                0.09354257583618164
            ], 
            "type" : "VEC2"
        }, 
        {
            "bufferView" : 5, 
            "componentType" : 5123, 
            "count" : 2706, 
            "max" : [
                3, 
                3, 
                3, 
                3
            ], 
            "min" : [
                0, 
                0, 
                0, 
                0
            ], 
            "type" : "VEC4"
        }, 
        {
            "bufferView" : 6, 
            "componentType" : 5126, 
            "count" : 2706, 
            "max" : [
                1.003841519355774, 
                0.9858167767524719, 
                0.9698111414909363, 
                0.9179468750953674
            ], 
            "min" : [
                0.0, 
                0.0, 
                0.0, 
                0.0
            ], 
            "type" : "VEC4"
        }, 
        {
            "bufferView" : 7, 
            "componentType" : 5123, 
            "count" : 2706, 
            "max" : [
                0, 
                0, 
                0, 
                0
            ], 
            "min" : [
                0, 
                0, 
                0, 
                0
            ], 
            "type" : "VEC4"
        }, 
        {
            "bufferView" : 8, 
            "componentType" : 5126, 
            "count" : 2706, 
            "max" : [
                0.0, 
                0.0, 
                0.0, 
                0.0
            ], 
            "min" : [
                0.0, 
                0.0, 
                0.0, 
                0.0
            ], 
            "type" : "VEC4"
        }, 
        {
            "bufferView" : 9, 
            "componentType" : 5126, 
            "count" : 4, 
            "max" : [
                0.13349559903144836, 
                0.8455685377120972, 
                0.5169063210487366, 
                0.0, 
                1.4901158351676713e-07, 
                1.0, 
                0.0, 
                0.0, 
                0.8800948858261108, 
                0.1138991117477417, 
                0.06962786614894867, 
                0.0, 
                0.0986855998635292, 
                -0.5375075340270996, 
                3.2118842601776123, 
                1.0
            ], 
            "min" : [
                -0.7618973851203918, 
                -0.6392230987548828, 
                -0.8800948858261108, 
                0.0, 
                0.0, 
                0.5215746760368347, 
                -0.8532056212425232, 
                0.0, 
                -0.9910493493080139, 
                -0.3448510766029358, 
                -0.7618973851203918, 
                0.0, 
                -0.25360366702079773, 
                -8.852163314819336, 
                -0.0817503109574318, 
                1.0
            ], 
            "type" : "MAT4"
        }, 
        {
            "bufferView" : 10, 
            "componentType" : 5126, 
            "count" : 179, 
            "max" : [
                5.933333333333334
            ], 
            "min" : [
                0.0
            ], 
            "type" : "SCALAR"
        }, 
        {
            "bufferView" : 11, 
            "componentType" : 5126, 
            "count" : 179, 
            "max" : [
                0.0, 
                0.0, 
                0.0
            ], 
            "min" : [
                0.0, 
                0.0, 
                0.0
            ], 
            "type" : "VEC3"
        }, 
        {
            "bufferView" : 12, 
            "componentType" : 5126, 
            "count" : 179, 
            "max" : [
                5.933333333333334
            ], 
            "min" : [
                0.0
            ], 
            "type" : "SCALAR"
        }, 
        {
            "bufferView" : 13, 
            "componentType" : 5126, 
            "count" : 179, 
            "max" : [
                0.0, 
                0.1846853345632553, 
                0.0, 
                0.9827977418899536
            ], 
            "min" : [
                0.0, 
                0.1846853345632553, 
                0.0, 
                0.9827977418899536
            ], 
            "type" : "VEC4"
        }, 
        {
            "bufferView" : 14, 
            "componentType" : 5126, 
            "count" : 179, 
            "max" : [
                5.933333333333334
            ], 
            "min" : [
                0.0
            ], 
            "type" : "SCALAR"
        }, 
        {
            "bufferView" : 15, 
            "componentType" : 5126, 
            "count" : 179, 
            "max" : [
                0.12413299828767776, 
                8.314655303955078, 
                -0.3186216950416565
            ], 
            "min" : [
                0.12413299828767776, 
                8.314655303955078, 
                -0.3186216950416565
            ], 
            "type" : "VEC3"
        }, 
        {
            "bufferView" : 16, 
            "componentType" : 5126, 
            "count" : 179, 
            "max" : [
                5.933333333333334
            ], 
            "min" : [
                0.0
            ], 
            "type" : "SCALAR"
        }, 
        {
            "bufferView" : 17, 
            "componentType" : 5126, 
            "count" : 179, 
            "max" : [
                -8.909128155210055e-07, 
                -0.18461735546588898, 
                0.026667946949601173, 
                0.9827977418899536
            ], 
            "min" : [
                -0.00501138623803854, 
                -0.1846853494644165, 
                4.740966687677428e-06, 
                0.9824358224868774
            ], 
            "type" : "VEC4"
        }, 
        {
            "bufferView" : 18, 
            "componentType" : 5126, 
            "count" : 179, 
            "max" : [
                5.933333333333334
            ], 
            "min" : [
                0.0
            ], 
            "type" : "SCALAR"
        }, 
        {
            "bufferView" : 19, 
            "componentType" : 5126, 
            "count" : 179, 
            "max" : [
                -1.1583771705627441, 
                4.432445049285889, 
                -1.9088990688323975
            ], 
            "min" : [
                -1.1583771705627441, 
                4.432445049285889, 
                -1.9088990688323975
            ], 
            "type" : "VEC3"
        }, 
        {
            "bufferView" : 20, 
            "componentType" : 5126, 
            "count" : 179, 
            "max" : [
                5.933333333333334
            ], 
            "min" : [
                0.0
            ], 
            "type" : "SCALAR"
        }, 
        {
            "bufferView" : 21, 
            "componentType" : 5126, 
            "count" : 179, 
            "max" : [
                0.14028847217559814, 
                -0.8510653376579285, 
                0.4811524748802185, 
                0.18576496839523315
            ], 
            "min" : [
                0.08777743577957153, 
                -0.8580724000930786, 
                0.4706360995769501, 
                0.15652231872081757
            ], 
            "type" : "VEC4"
        }, 
        {
            "bufferView" : 22, 
            "componentType" : 5126, 
            "count" : 179, 
            "max" : [
                5.933333333333334
            ], 
            "min" : [
                0.0
            ], 
            "type" : "SCALAR"
        }, 
        {
            "bufferView" : 23, 
            "componentType" : 5126, 
            "count" : 179, 
            "max" : [
                -0.29650938510894775, 
                5.769224643707275, 
                1.9095748662948608
            ], 
            "min" : [
                -0.29650938510894775, 
                5.769224643707275, 
                1.9095748662948608
            ], 
            "type" : "VEC3"
        }, 
        {
            "bufferView" : 24, 
            "componentType" : 5126, 
            "count" : 179, 
            "max" : [
                5.933333333333334
            ], 
            "min" : [
                0.0
            ], 
            "type" : "SCALAR"
        }, 
        {
            "bufferView" : 25, 
            "componentType" : 5126, 
            "count" : 179, 
            "max" : [
                0.3953697383403778, 
                -6.24327458353946e-06, 
                0.06114763021469116, 
                0.9185221791267395
            ], 
            "min" : [
                0.39449259638786316, 
                -0.026320450007915497, 
                1.4525922779284883e-05, 
                0.9164844751358032
            ], 
            "type" : "VEC4"
        }
    ], 
    "animations" : [
        {
            "channels" : [
                {
                    "sampler" : 0, 
                    "target" : {
                        "node" : 2, 
                        "path" : "translation"
                    }
                }, 
                {
                    "sampler" : 1, 
                    "target" : {
                        "node" : 2, 
                        "path" : "rotation"
                    }
                }, 
                {
                    "sampler" : 2, 
                    "target" : {
                        "node" : 3, 
                        "path" : "translation"
                    }
                }, 
                {
                    "sampler" : 3, 
                    "target" : {
                        "node" : 3, 
                        "path" : "rotation"
                    }
                }, 
                {
                    "sampler" : 4, 
                    "target" : {
                        "node" : 4, 
                        "path" : "translation"
                    }
                }, 
                {
                    "sampler" : 5, 
                    "target" : {
                        "node" : 4, 
                        "path" : "rotation"
                    }
                }, 
                {
                    "sampler" : 6, 
                    "target" : {
                        "node" : 5, 
                        "path" : "translation"
                    }
                }, 
                {
                    "sampler" : 7, 
                    "target" : {
                        "node" : 5, 
                        "path" : "rotation"
                    }
                }
            ], 
            "name":"Armature_Idle",
            "samplers" : [
                {
                    "input" : 10, 
                    "interpolation" : "LINEAR", 
                    "output" : 11
                }, 
                {
                    "input" : 12, 
                    "interpolation" : "LINEAR", 
                    "output" : 13
                }, 
                {
                    "input" : 14, 
                    "interpolation" : "LINEAR", 
                    "output" : 15
                }, 
                {
                    "input" : 16, 
                    "interpolation" : "LINEAR", 
                    "output" : 17
                }, 
                {
                    "input" : 18, 
                    "interpolation" : "LINEAR", 
                    "output" : 19
                }, 
                {
                    "input" : 20, 
                    "interpolation" : "LINEAR", 
                    "output" : 21
                }, 
                {
                    "input" : 22, 
                    "interpolation" : "LINEAR", 
                    "output" : 23
                }, 
                {
                    "input" : 24, 
                    "interpolation" : "LINEAR", 
                    "output" : 25
                }
            ]
        }
    ], 
    "asset" : {
        "generator" : "Khronos Blender glTF 2.0 exporter", 
        "version" : "2.0"
    }, 
    "bufferViews" : [
        {
            "buffer" : 0, 
            "byteLength" : 5412, 
            "byteOffset" : 0, 
            "target" : 34963
        }, 
        {
            "buffer" : 0, 
            "byteLength" : 32472, 
            "byteOffset" : 5412, 
            "target" : 34962
        }, 
        {
            "buffer" : 0, 
            "byteLength" : 32472, 
            "byteOffset" : 37884, 
            "target" : 34962
        }, 
        {
            "buffer" : 0, 
            "byteLength" : 43296, 
            "byteOffset" : 70356, 
            "target" : 34962
        }, 
        {
            "buffer" : 0, 
            "byteLength" : 21648, 
            "byteOffset" : 113652, 
            "target" : 34962
        }, 
        {
            "buffer" : 0, 
            "byteLength" : 21648, 
            "byteOffset" : 135300, 
            "target" : 34962
        }, 
        {
            "buffer" : 0, 
            "byteLength" : 43296, 
            "byteOffset" : 156948, 
            "target" : 34962
        }, 
        {
            "buffer" : 0, 
            "byteLength" : 21648, 
            "byteOffset" : 200244, 
            "target" : 34962
        }, 
        {
            "buffer" : 0, 
            "byteLength" : 43296, 
            "byteOffset" : 221892, 
            "target" : 34962
        }, 
        {
            "buffer" : 0, 
            "byteLength" : 256, 
            "byteOffset" : 265188
        }, 
        {
            "buffer" : 0, 
            "byteLength" : 716, 
            "byteOffset" : 265444
        }, 
        {
            "buffer" : 0, 
            "byteLength" : 2148, 
            "byteOffset" : 266160
        }, 
        {
            "buffer" : 0, 
            "byteLength" : 716, 
            "byteOffset" : 268308
        }, 
        {
            "buffer" : 0, 
            "byteLength" : 2864, 
            "byteOffset" : 269024
        }, 
        {
            "buffer" : 0, 
            "byteLength" : 716, 
            "byteOffset" : 271888
        }, 
        {
            "buffer" : 0, 
            "byteLength" : 2148, 
            "byteOffset" : 272604
        }, 
        {
            "buffer" : 0, 
            "byteLength" : 716, 
            "byteOffset" : 274752
        }, 
        {
            "buffer" : 0, 
            "byteLength" : 2864, 
            "byteOffset" : 275468
        }, 
        {
            "buffer" : 0, 
            "byteLength" : 716, 
            "byteOffset" : 278332
        }, 
        {
            "buffer" : 0, 
            "byteLength" : 2148, 
            "byteOffset" : 279048
        }, 
        {
            "buffer" : 0, 
            "byteLength" : 716, 
            "byteOffset" : 281196
        }, 
        {
            "buffer" : 0, 
            "byteLength" : 2864, 
            "byteOffset" : 281912
        }, 
        {
            "buffer" : 0, 
            "byteLength" : 716, 
            "byteOffset" : 284776
        }, 
        {
            "buffer" : 0, 
            "byteLength" : 2148, 
            "byteOffset" : 285492
        }, 
        {
            "buffer" : 0, 
            "byteLength" : 716, 
            "byteOffset" : 287640
        }, 
        {
            "buffer" : 0, 
            "byteLength" : 2864, 
            "byteOffset" : 288356
        }
    ], 
    "buffers" : [
        {
            "byteLength" : 291220, 
            "uri" : "data:application/octet-stream;base64,"
        }
    ], 
    "images" : [
        {
            "uri" : "ColorAtlas_2.png"
        }, 
        {
            "uri" : "ColorAtlasEmisor2.png"
        }
    ], 
    "materials" : [
        {
            "emissiveTexture" : {
                "index" : 1
            }, 
            "name" : "Mat_ColorAtlas", 
            "pbrMetallicRoughness" : {
                "baseColorFactor" : [
                    0.800000011920929, 
                    0.800000011920929, 
                    0.800000011920929, 
                    1.0
                ], 
                "baseColorTexture" : {
                    "index" : 0
                }, 
                "metallicFactor" : 0.0
            }
        }
    ], 
    "meshes" : [
        {
            "name" : "Plane.009", 
            "primitives" : [
                {
                    "attributes" : {
                        "JOINTS_0" : 5, 
                        "JOINTS_1" : 7, 
                        "NORMAL" : 2, 
                        "POSITION" : 1, 
                        "TANGENT" : 3, 
                        "TEXCOORD_0" : 4, 
                        "WEIGHTS_0" : 6, 
                        "WEIGHTS_1" : 8
                    }, 
                    "indices" : 0, 
                    "material" : 0
                }
            ]
        }
    ], 
    "nodes" : [
        {
            "children" : [
                1, 
                2
            ], 
            "name" : "Armature.012", 
            "translation" : [
                -9.946370124816895, 
                5.7950825691223145, 
                8.926095008850098
            ]
        }, 
        {
            "mesh" : 0, 
            "name" : "Tree_002", 
            "rotation" : [
                0.0, 
                0.9385887980461121, 
                -0.0, 
                0.3450379967689514
            ], 
            "scale" : [
                0.9999999403953552, 
                1.0, 
                0.9999999403953552
            ], 
            "skin" : 0, 
            "translation" : [
                -0.2140054702758789, 
                -0.5375075340270996, 
                -0.004360198974609375
            ]
        }, 
        {
            "children" : [
                3, 
                4, 
                5
            ], 
            "name" : "Armature.012_Bone", 
            "rotation" : [
                0.0, 
                0.1846853345632553, 
                0.0, 
                0.9827977418899536
            ]
        }, 
        {
            "name" : "Armature.012_Bone.001", 
            "rotation" : [
                0.0, 
                -0.1846853345632553, 
                0.0, 
                0.9827977418899536
            ], 
            "translation" : [
                0.12413299828767776, 
                8.314655303955078, 
                -0.3186216950416565
            ]
        }, 
        {
            "name" : "Armature.012_Bone.002", 
            "rotation" : [
                0.08776392042636871, 
                -0.8580737113952637, 
                0.4811548888683319, 
                0.1565149575471878
            ], 
            "scale" : [
                1.0, 
                1.000000238418579, 
                0.9999999403953552
            ], 
            "translation" : [
                -1.1583771705627441, 
                4.432445049285889, 
                -1.9088990688323975
            ]
        }, 
        {
            "name" : "Armature.012_Bone.003", 
            "rotation" : [
                0.3953697383403778, 
                1.6222976739754813e-08, 
                -8.542618168405625e-09, 
                0.9185221791267395
            ], 
            "scale" : [
                1.0000001192092896, 
                1.0, 
                1.0
            ], 
            "translation" : [
                -0.29650938510894775, 
                5.769224643707275, 
                1.9095748662948608
            ]
        }
    ], 
    "samplers" : [
        {}
    ], 
    "scene" : 0, 
    "scenes" : [
        {
            "name" : "Scene", 
            "nodes" : [
                0
            ]
        }
    ], 
    "skins" : [
        {
            "inverseBindMatrices" : 9, 
            "joints" : [
                2, 
                3, 
                4, 
                5
            ], 
            "skeleton" : 0
        }
    ], 
    "textures" : [
        {
            "sampler" : 0, 
            "source" : 0
        }, 
        {
            "sampler" : 0, 
            "source" : 1
        }
    ]
}
