{
    "accessors" : [
        {
            "bufferView" : 0, 
            "componentType" : 5123, 
            "count" : 2706, 
            "max" : [
                2705
            ], 
            "min" : [
                0
            ], 
            "type" : "SCALAR"
        }, 
        {
            "bufferView" : 1, 
            "componentType" : 5126, 
            "count" : 2706, 
            "max" : [
                7.528357028961182, 
                20.163164138793945, 
                7.475771903991699
            ], 
            "min" : [
                -7.289704322814941, 
                0.16088709235191345, 
                -7.723160266876221
            ], 
            "type" : "VEC3"
        }, 
        {
            "bufferView" : 2, 
            "componentType" : 5126, 
            "count" : 2706, 
            "max" : [
                0.9971182942390442, 
                0.9842657446861267, 
                0.9993956685066223
            ], 
            "min" : [
                -0.9999107718467712, 
                -0.9985412359237671, 
                -0.9962894320487976
            ], 
            "type" : "VEC3"
        }, 
        {
            "bufferView" : 3, 
            "componentType" : 5126, 
            "count" : 2706, 
            "max" : [
                0.7792220711708069, 
                0.49273598194122314, 
                0.9999997019767761, 
                1.0
            ], 
            "min" : [
                -0.9999990463256836, 
                -0.3632725477218628, 
                -0.8099937438964844, 
                -1.0
            ], 
            "type" : "VEC4"
        }, 
        {
            "bufferView" : 4, 
            "componentType" : 5126, 
            "count" : 2706, 
            "max" : [
                0.5744332671165466, 
                0.33022046089172363
            ], 
            "min" : [
                0.19381728768348694, 
                0.09354257583618164
            ], 
            "type" : "VEC2"
        }, 
        {
            "bufferView" : 5, 
            "componentType" : 5123, 
            "count" : 2706, 
            "max" : [
                3, 
                3, 
                3, 
                3
            ], 
            "min" : [
                0, 
                0, 
                0, 
                0
            ], 
            "type" : "VEC4"
        }, 
        {
            "bufferView" : 6, 
            "componentType" : 5126, 
            "count" : 2706, 
            "max" : [
                1.0029239654541016, 
                0.9858202338218689, 
                0.9698254466056824, 
                0.9179515838623047
            ], 
            "min" : [
                0.0, 
                0.0, 
                0.0, 
                0.0
            ], 
            "type" : "VEC4"
        }, 
        {
            "bufferView" : 7, 
            "componentType" : 5123, 
            "count" : 2706, 
            "max" : [
                0, 
                0, 
                0, 
                0
            ], 
            "min" : [
                0, 
                0, 
                0, 
                0
            ], 
            "type" : "VEC4"
        }, 
        {
            "bufferView" : 8, 
            "componentType" : 5126, 
            "count" : 2706, 
            "max" : [
                0.0, 
                0.0, 
                0.0, 
                0.0
            ], 
            "min" : [
                0.0, 
                0.0, 
                0.0, 
                0.0
            ], 
            "type" : "VEC4"
        }, 
        {
            "bufferView" : 9, 
            "componentType" : 5126, 
            "count" : 4, 
            "max" : [
                0.13349545001983643, 
                0.8455692529678345, 
                0.5169063210487366, 
                0.0, 
                1.4901164746561335e-08, 
                1.0000001192092896, 
                0.0, 
                0.0, 
                0.8800947666168213, 
                0.11389940977096558, 
                0.06962800025939941, 
                0.0, 
                0.11517802625894547, 
                -0.6273319721221924, 
                3.7486331462860107, 
                1.0
            ], 
            "min" : [
                -0.7618975043296814, 
                -0.6392230987548828, 
                -0.8800950050354004, 
                0.0, 
                0.0, 
                0.5215747356414795, 
                -0.8532056212425232, 
                0.0, 
                -0.9910493493080139, 
                -0.34485119581222534, 
                -0.761897623538971, 
                0.0, 
                -0.2959842085838318, 
                -10.331482887268066, 
                -0.09541215002536774, 
                1.0
            ], 
            "type" : "MAT4"
        }, 
        {
            "bufferView" : 10, 
            "componentType" : 5126, 
            "count" : 179, 
            "max" : [
                5.933333333333334
            ], 
            "min" : [
                0.0
            ], 
            "type" : "SCALAR"
        }, 
        {
            "bufferView" : 11, 
            "componentType" : 5126, 
            "count" : 179, 
            "max" : [
                0.0, 
                0.0, 
                0.0
            ], 
            "min" : [
                0.0, 
                0.0, 
                0.0
            ], 
            "type" : "VEC3"
        }, 
        {
            "bufferView" : 12, 
            "componentType" : 5126, 
            "count" : 179, 
            "max" : [
                5.933333333333334
            ], 
            "min" : [
                0.0
            ], 
            "type" : "SCALAR"
        }, 
        {
            "bufferView" : 13, 
            "componentType" : 5126, 
            "count" : 179, 
            "max" : [
                0.0, 
                0.1846853345632553, 
                0.0, 
                0.9827977418899536
            ], 
            "min" : [
                0.0, 
                0.1846853345632553, 
                0.0, 
                0.9827977418899536
            ], 
            "type" : "VEC4"
        }, 
        {
            "bufferView" : 14, 
            "componentType" : 5126, 
            "count" : 179, 
            "max" : [
                5.933333333333334
            ], 
            "min" : [
                0.0
            ], 
            "type" : "SCALAR"
        }, 
        {
            "bufferView" : 15, 
            "componentType" : 5126, 
            "count" : 179, 
            "max" : [
                0.1448773741722107, 
                9.704150199890137, 
                -0.371867835521698
            ], 
            "min" : [
                0.1448773741722107, 
                9.704150199890137, 
                -0.371867835521698
            ], 
            "type" : "VEC3"
        }, 
        {
            "bufferView" : 16, 
            "componentType" : 5126, 
            "count" : 179, 
            "max" : [
                5.933333333333334
            ], 
            "min" : [
                0.0
            ], 
            "type" : "SCALAR"
        }, 
        {
            "bufferView" : 17, 
            "componentType" : 5126, 
            "count" : 179, 
            "max" : [
                -8.909128723644244e-07, 
                -0.1846173256635666, 
                0.026667946949601173, 
                0.9827977418899536
            ], 
            "min" : [
                -0.00501138623803854, 
                -0.18468531966209412, 
                4.740966687677428e-06, 
                0.9824358224868774
            ], 
            "type" : "VEC4"
        }, 
        {
            "bufferView" : 18, 
            "componentType" : 5126, 
            "count" : 179, 
            "max" : [
                5.933333333333334
            ], 
            "min" : [
                0.0
            ], 
            "type" : "SCALAR"
        }, 
        {
            "bufferView" : 19, 
            "componentType" : 5126, 
            "count" : 179, 
            "max" : [
                -1.3519585132598877, 
                5.173168182373047, 
                -2.22790265083313
            ], 
            "min" : [
                -1.3519585132598877, 
                5.173168182373047, 
                -2.22790265083313
            ], 
            "type" : "VEC3"
        }, 
        {
            "bufferView" : 20, 
            "componentType" : 5126, 
            "count" : 179, 
            "max" : [
                5.933333333333334
            ], 
            "min" : [
                0.0
            ], 
            "type" : "SCALAR"
        }, 
        {
            "bufferView" : 21, 
            "componentType" : 5126, 
            "count" : 179, 
            "max" : [
                0.14028869569301605, 
                -0.8510652184486389, 
                0.48115262389183044, 
                0.1857651174068451
            ], 
            "min" : [
                0.08777740597724915, 
                -0.8580722808837891, 
                0.4706363379955292, 
                0.15652258694171906
            ], 
            "type" : "VEC4"
        }, 
        {
            "bufferView" : 22, 
            "componentType" : 5126, 
            "count" : 179, 
            "max" : [
                5.933333333333334
            ], 
            "min" : [
                0.0
            ], 
            "type" : "SCALAR"
        }, 
        {
            "bufferView" : 23, 
            "componentType" : 5126, 
            "count" : 179, 
            "max" : [
                -0.346060186624527, 
                6.733342170715332, 
                2.228691339492798
            ], 
            "min" : [
                -0.346060186624527, 
                6.733342170715332, 
                2.228691339492798
            ], 
            "type" : "VEC3"
        }, 
        {
            "bufferView" : 24, 
            "componentType" : 5126, 
            "count" : 179, 
            "max" : [
                5.933333333333334
            ], 
            "min" : [
                0.0
            ], 
            "type" : "SCALAR"
        }, 
        {
            "bufferView" : 25, 
            "componentType" : 5126, 
            "count" : 179, 
            "max" : [
                0.3953697085380554, 
                -6.218939233804122e-06, 
                0.06114761903882027, 
                0.9185221791267395
            ], 
            "min" : [
                0.39449256658554077, 
                -0.026320423930883408, 
                1.4517712770611979e-05, 
                0.916484534740448
            ], 
            "type" : "VEC4"
        }
    ], 
    "animations" : [
        {
            "channels" : [
                {
                    "sampler" : 0, 
                    "target" : {
                        "node" : 2, 
                        "path" : "translation"
                    }
                }, 
                {
                    "sampler" : 1, 
                    "target" : {
                        "node" : 2, 
                        "path" : "rotation"
                    }
                }, 
                {
                    "sampler" : 2, 
                    "target" : {
                        "node" : 3, 
                        "path" : "translation"
                    }
                }, 
                {
                    "sampler" : 3, 
                    "target" : {
                        "node" : 3, 
                        "path" : "rotation"
                    }
                }, 
                {
                    "sampler" : 4, 
                    "target" : {
                        "node" : 4, 
                        "path" : "translation"
                    }
                }, 
                {
                    "sampler" : 5, 
                    "target" : {
                        "node" : 4, 
                        "path" : "rotation"
                    }
                }, 
                {
                    "sampler" : 6, 
                    "target" : {
                        "node" : 5, 
                        "path" : "translation"
                    }
                }, 
                {
                    "sampler" : 7, 
                    "target" : {
                        "node" : 5, 
                        "path" : "rotation"
                    }
                }
            ],
            "name":"Armature_Idle", 
            "samplers" : [
                {
                    "input" : 10, 
                    "interpolation" : "LINEAR", 
                    "output" : 11
                }, 
                {
                    "input" : 12, 
                    "interpolation" : "LINEAR", 
                    "output" : 13
                }, 
                {
                    "input" : 14, 
                    "interpolation" : "LINEAR", 
                    "output" : 15
                }, 
                {
                    "input" : 16, 
                    "interpolation" : "LINEAR", 
                    "output" : 17
                }, 
                {
                    "input" : 18, 
                    "interpolation" : "LINEAR", 
                    "output" : 19
                }, 
                {
                    "input" : 20, 
                    "interpolation" : "LINEAR", 
                    "output" : 21
                }, 
                {
                    "input" : 22, 
                    "interpolation" : "LINEAR", 
                    "output" : 23
                }, 
                {
                    "input" : 24, 
                    "interpolation" : "LINEAR", 
                    "output" : 25
                }
            ]
        }
    ], 
    "asset" : {
        "generator" : "Khronos Blender glTF 2.0 exporter", 
        "version" : "2.0"
    }, 
    "bufferViews" : [
        {
            "buffer" : 0, 
            "byteLength" : 5412, 
            "byteOffset" : 0, 
            "target" : 34963
        }, 
        {
            "buffer" : 0, 
            "byteLength" : 32472, 
            "byteOffset" : 5412, 
            "target" : 34962
        }, 
        {
            "buffer" : 0, 
            "byteLength" : 32472, 
            "byteOffset" : 37884, 
            "target" : 34962
        }, 
        {
            "buffer" : 0, 
            "byteLength" : 43296, 
            "byteOffset" : 70356, 
            "target" : 34962
        }, 
        {
            "buffer" : 0, 
            "byteLength" : 21648, 
            "byteOffset" : 113652, 
            "target" : 34962
        }, 
        {
            "buffer" : 0, 
            "byteLength" : 21648, 
            "byteOffset" : 135300, 
            "target" : 34962
        }, 
        {
            "buffer" : 0, 
            "byteLength" : 43296, 
            "byteOffset" : 156948, 
            "target" : 34962
        }, 
        {
            "buffer" : 0, 
            "byteLength" : 21648, 
            "byteOffset" : 200244, 
            "target" : 34962
        }, 
        {
            "buffer" : 0, 
            "byteLength" : 43296, 
            "byteOffset" : 221892, 
            "target" : 34962
        }, 
        {
            "buffer" : 0, 
            "byteLength" : 256, 
            "byteOffset" : 265188
        }, 
        {
            "buffer" : 0, 
            "byteLength" : 716, 
            "byteOffset" : 265444
        }, 
        {
            "buffer" : 0, 
            "byteLength" : 2148, 
            "byteOffset" : 266160
        }, 
        {
            "buffer" : 0, 
            "byteLength" : 716, 
            "byteOffset" : 268308
        }, 
        {
            "buffer" : 0, 
            "byteLength" : 2864, 
            "byteOffset" : 269024
        }, 
        {
            "buffer" : 0, 
            "byteLength" : 716, 
            "byteOffset" : 271888
        }, 
        {
            "buffer" : 0, 
            "byteLength" : 2148, 
            "byteOffset" : 272604
        }, 
        {
            "buffer" : 0, 
            "byteLength" : 716, 
            "byteOffset" : 274752
        }, 
        {
            "buffer" : 0, 
            "byteLength" : 2864, 
            "byteOffset" : 275468
        }, 
        {
            "buffer" : 0, 
            "byteLength" : 716, 
            "byteOffset" : 278332
        }, 
        {
            "buffer" : 0, 
            "byteLength" : 2148, 
            "byteOffset" : 279048
        }, 
        {
            "buffer" : 0, 
            "byteLength" : 716, 
            "byteOffset" : 281196
        }, 
        {
            "buffer" : 0, 
            "byteLength" : 2864, 
            "byteOffset" : 281912
        }, 
        {
            "buffer" : 0, 
            "byteLength" : 716, 
            "byteOffset" : 284776
        }, 
        {
            "buffer" : 0, 
            "byteLength" : 2148, 
            "byteOffset" : 285492
        }, 
        {
            "buffer" : 0, 
            "byteLength" : 716, 
            "byteOffset" : 287640
        }, 
        {
            "buffer" : 0, 
            "byteLength" : 2864, 
            "byteOffset" : 288356
        }
    ], 
    "buffers" : [
        {
            "byteLength" : 291220, 
            "uri" : "data:application/octet-stream;base64,"
        }
    ], 
    "images" : [
        {
            "uri" : "ColorAtlas_2.png"
        }, 
        {
            "uri" : "ColorAtlasEmisor2.png"
        }
    ], 
    "materials" : [
        {
            "emissiveTexture" : {
                "index" : 1
            }, 
            "name" : "Mat_ColorAtlas", 
            "pbrMetallicRoughness" : {
                "baseColorFactor" : [
                    0.800000011920929, 
                    0.800000011920929, 
                    0.800000011920929, 
                    1.0
                ], 
                "baseColorTexture" : {
                    "index" : 0
                }, 
                "metallicFactor" : 0.0
            }
        }
    ], 
    "meshes" : [
        {
            "name" : "Plane.015", 
            "primitives" : [
                {
                    "attributes" : {
                        "JOINTS_0" : 5, 
                        "JOINTS_1" : 7, 
                        "NORMAL" : 2, 
                        "POSITION" : 1, 
                        "TANGENT" : 3, 
                        "TEXCOORD_0" : 4, 
                        "WEIGHTS_0" : 6, 
                        "WEIGHTS_1" : 8
                    }, 
                    "indices" : 0, 
                    "material" : 0
                }
            ]
        }
    ], 
    "nodes" : [
        {
            "children" : [
                1, 
                2
            ], 
            "name" : "Armature.013", 
            "rotation" : [
                0.0, 
                -0.37464895844459534, 
                -0.0, 
                0.927166759967804
            ], 
            "translation" : [
                -7.843654632568359, 
                3.0492987632751465, 
                -10.180851936340332
            ]
        }, 
        {
            "mesh" : 0, 
            "name" : "Tree_002.001", 
            "rotation" : [
                0.0, 
                0.9385887384414673, 
                -0.0, 
                0.34503790736198425
            ], 
            "scale" : [
                1.000000238418579, 
                1.0, 
                1.0
            ], 
            "skin" : 0, 
            "translation" : [
                -0.24976825714111328, 
                -0.6273317337036133, 
                -0.00508880615234375
            ]
        }, 
        {
            "children" : [
                3, 
                4, 
                5
            ], 
            "name" : "Armature.013_Bone", 
            "rotation" : [
                0.0, 
                0.1846853345632553, 
                0.0, 
                0.9827977418899536
            ]
        }, 
        {
            "name" : "Armature.013_Bone.001", 
            "rotation" : [
                0.0, 
                -0.18468531966209412, 
                0.0, 
                0.9827977418899536
            ], 
            "scale" : [
                1.0, 
                0.9999999403953552, 
                1.0
            ], 
            "translation" : [
                0.1448773741722107, 
                9.704150199890137, 
                -0.371867835521698
            ]
        }, 
        {
            "name" : "Armature.013_Bone.002", 
            "rotation" : [
                0.08776409178972244, 
                -0.8580735921859741, 
                0.48115506768226624, 
                0.15651515126228333
            ], 
            "scale" : [
                1.0, 
                0.9999996423721313, 
                1.0
            ], 
            "translation" : [
                -1.3519585132598877, 
                5.173168182373047, 
                -2.22790265083313
            ]
        }, 
        {
            "name" : "Armature.013_Bone.003", 
            "rotation" : [
                0.39536967873573303, 
                4.0557438296673354e-08, 
                -1.675000937950699e-08, 
                0.9185221195220947
            ], 
            "translation" : [
                -0.346060186624527, 
                6.733342170715332, 
                2.228691339492798
            ]
        }
    ], 
    "samplers" : [
        {}
    ], 
    "scene" : 0, 
    "scenes" : [
        {
            "name" : "Scene", 
            "nodes" : [
                0
            ]
        }
    ], 
    "skins" : [
        {
            "inverseBindMatrices" : 9, 
            "joints" : [
                2, 
                3, 
                4, 
                5
            ], 
            "skeleton" : 0
        }
    ], 
    "textures" : [
        {
            "sampler" : 0, 
            "source" : 0
        }, 
        {
            "sampler" : 0, 
            "source" : 1
        }
    ]
}
