{
    "accessors": [
        {
            "bufferView": 1,
            "byteOffset": 0,
            "componentType": 5126,
            "count": 1080,
            "max": [
                0.9971216917037964,
                0.9999985098838806,
                0.7005906105041504
            ],
            "min": [
                -0.9979062080383301,
                -0.4401363730430603,
                -0.9996317625045776
            ],
            "name": "accessor_buffer_WaterFont_NORMAL_0",
            "type": "VEC3"
        },
        {
            "bufferView": 0,
            "byteOffset": 0,
            "componentType": 5126,
            "count": 1080,
            "max": [
                2.1046102046966553,
                5.7431254386901855,
                2.1046102046966553
            ],
            "min": [
                -2.1046102046966553,
                0.1731908917427063,
                -2.1046102046966553
            ],
            "name": "accessor_buffer_WaterFont_POSITION_0",
            "type": "VEC3"
        },
        {
            "bufferView": 3,
            "byteOffset": 0,
            "componentType": 5123,
            "count": 1080,
            "max": [
                1079
            ],
            "min": [
                0
            ],
            "name": "accessor_buffer_WaterFont_0",
            "type": "SCALAR"
        },
        {
            "bufferView": 2,
            "byteOffset": 0,
            "componentType": 5126,
            "count": 1080,
            "max": [
                0.7367035150527954,
                0.886931836605072
            ],
            "min": [
                0.6965535283088684,
                0.7880078554153442
            ],
            "name": "accessor_buffer_WaterFont_TEXCOORD_0_0",
            "type": "VEC2"
        }
    ],
    "asset": {
        "copyright": "",
        "generator": "blendergltf v1.2.0",
        "version": "2.0"
    },
    "bufferViews": [
        {
            "buffer": 0,
            "byteLength": 12960,
            "byteOffset": 0,
            "byteStride": 12,
            "name": "bufferView_buffer_WaterFont_POSITION_0",
            "target": 34962
        },
        {
            "buffer": 0,
            "byteLength": 12960,
            "byteOffset": 12960,
            "byteStride": 12,
            "name": "bufferView_buffer_WaterFont_NORMAL_0",
            "target": 34962
        },
        {
            "buffer": 0,
            "byteLength": 8640,
            "byteOffset": 25920,
            "byteStride": 8,
            "name": "bufferView_buffer_WaterFont_TEXCOORD_0_0",
            "target": 34962
        },
        {
            "buffer": 0,
            "byteLength": 2164,
            "byteOffset": 34560,
            "name": "bufferView_buffer_WaterFont_0",
            "target": 34963
        }
    ],
    "buffers": [
        {
            "byteLength": 36724,
            "name": "buffer_WaterFountain",
            "uri": "data:application/octet-stream;base64,"
        }
    ],
    "images": [
        {
            "mimeType": "image/png",
            "name": "ColorAtlas.png",
            "uri": "data:image/png;base64,"
        },
        {
            "mimeType": "image/png",
            "name": "ColorAtlasEmisor.png",
            "uri": "data:image/png;base64,"
        },
        {
            "mimeType": "image/png",
            "name": "ColorAtlasEmisor2.jpg.004",
            "uri": "data:image/png;base64,"
        }
    ],
    "materials": [
        {
            "alphaMode": "OPAQUE",
            "doubleSided": false,
            "emissiveFactor": [
                1.0,
                1.0,
                1.0
            ],
            "emissiveTexture": {
                "index": 1,
                "texCoord": 0
            },
            "name": "Mat_ColorAtlas.001",
            "pbrMetallicRoughness": {
                "baseColorFactor": [
                    0.800000011920929,
                    0.800000011920929,
                    0.800000011920929,
                    1.0
                ],
                "baseColorTexture": {
                    "index": 0,
                    "texCoord": 0
                },
                "metallicFactor": 0.0,
                "roughnessFactor": 1.0
            }
        },
        {
            "alphaMode": "OPAQUE",
            "doubleSided": false,
            "emissiveFactor": [
                0.0,
                0.0,
                0.0
            ],
            "emissiveTexture": {
                "index": 2,
                "texCoord": 0
            },
            "name": "Mat_Water.003",
            "pbrMetallicRoughness": {
                "baseColorFactor": [
                    0.64000004529953,
                    0.64000004529953,
                    0.64000004529953,
                    1.0
                ],
                "baseColorTexture": {
                    "index": 2,
                    "texCoord": 0
                },
                "metallicFactor": 0.0,
                "roughnessFactor": 1.0
            }
        }
    ],
    "meshes": [
        {
            "name": "WaterFont",
            "primitives": [
                {
                    "attributes": {
                        "NORMAL": 0,
                        "POSITION": 1,
                        "TEXCOORD_0": 3
                    },
                    "indices": 2,
                    "material": 1,
                    "mode": 4
                }
            ]
        }
    ],
    "nodes": [
        {
            "mesh": 0,
            "name": "WaterFont",
            "rotation": [
                0.0,
                0.0,
                0.0,
                1.0
            ],
            "scale": [
                0.3977317810058594,
                0.3977317810058594,
                0.3977317810058594
            ],
            "translation": [
                -7.6327223777771,
                3.170361042022705,
                -3.946410655975342
            ]
        }
    ],
    "samplers": [
        {
            "magFilter": 9729,
            "minFilter": 9987,
            "name": "DiffuseColorAtlas",
            "wrapS": 10497,
            "wrapT": 10497
        },
        {
            "magFilter": 9729,
            "minFilter": 9987,
            "name": "EmisorColorAtlas",
            "wrapS": 10497,
            "wrapT": 10497
        },
        {
            "magFilter": 9729,
            "minFilter": 9987,
            "name": "WaterEmision.003",
            "wrapS": 10497,
            "wrapT": 10497
        }
    ],
    "scene": 0,
    "scenes": [
        {
            "extras": {
                "background_color": [
                    0.05087608844041824,
                    0.05087608844041824,
                    0.05087608844041824
                ],
                "frames_per_second": 30,
                "obj1": "Roundcube",
                "screencast_keys_box_draw": 0,
                "screencast_keys_font_size": 24,
                "screencast_keys_mouse": 2,
                "screencast_keys_pos_x": 75,
                "screencast_keys_pos_y": 4
            },
            "name": "Scene",
            "nodes": [
                0
            ]
        }
    ],
    "textures": [
        {
            "name": "DiffuseColorAtlas",
            "sampler": 0,
            "source": 0
        },
        {
            "name": "EmisorColorAtlas",
            "sampler": 1,
            "source": 1
        },
        {
            "name": "WaterEmision.003",
            "sampler": 2,
            "source": 2
        }
    ]
}
