{
    "accessors": [
        {
            "bufferView": 1,
            "byteOffset": 0,
            "componentType": 5126,
            "count": 2100,
            "max": [
                0.2870151996612549,
                0.9999698400497437,
                0.4487878978252411
            ],
            "min": [
                -0.9403380751609802,
                -0.21346621215343475,
                -0.9993408918380737
            ],
            "name": "accessor_buffer_WaterRiver_NORMAL_0",
            "type": "VEC3"
        },
        {
            "bufferView": 2,
            "byteOffset": 0,
            "componentType": 5126,
            "count": 2100,
            "max": [
                0.744779646396637,
                0.865882158279419
            ],
            "min": [
                0.6865217089653015,
                0.807530403137207
            ],
            "name": "accessor_buffer_WaterRiver_TEXCOORD_0_0",
            "type": "VEC2"
        },
        {
            "bufferView": 3,
            "byteOffset": 0,
            "componentType": 5123,
            "count": 2100,
            "max": [
                2099
            ],
            "min": [
                0
            ],
            "name": "accessor_buffer_WaterRiver_0",
            "type": "SCALAR"
        },
        {
            "bufferView": 0,
            "byteOffset": 0,
            "componentType": 5126,
            "count": 2100,
            "max": [
                4.4903669357299805,
                1.31654691696167,
                17.82381820678711
            ],
            "min": [
                -22.185941696166992,
                -6.338483810424805,
                -4.864059925079346
            ],
            "name": "accessor_buffer_WaterRiver_POSITION_0",
            "type": "VEC3"
        }
    ],
    "asset": {
        "copyright": "",
        "generator": "blendergltf v1.2.0",
        "version": "2.0"
    },
    "bufferViews": [
        {
            "buffer": 0,
            "byteLength": 25200,
            "byteOffset": 0,
            "byteStride": 12,
            "name": "bufferView_buffer_WaterRiver_POSITION_0",
            "target": 34962
        },
        {
            "buffer": 0,
            "byteLength": 25200,
            "byteOffset": 25200,
            "byteStride": 12,
            "name": "bufferView_buffer_WaterRiver_NORMAL_0",
            "target": 34962
        },
        {
            "buffer": 0,
            "byteLength": 16800,
            "byteOffset": 50400,
            "byteStride": 8,
            "name": "bufferView_buffer_WaterRiver_TEXCOORD_0_0",
            "target": 34962
        },
        {
            "buffer": 0,
            "byteLength": 4204,
            "byteOffset": 67200,
            "name": "bufferView_buffer_WaterRiver_0",
            "target": 34963
        }
    ],
    "buffers": [
        {
            "byteLength": 71404,
            "name": "buffer_Water",
            "uri": "data:application/octet-stream;base64,"
        }
    ],
    "images": [
        {
            "mimeType": "image/png",
            "name": "ColorAtlasEmisor2.jpg.002",
            "uri": "data:image/png;base64,"
        }
    ],
    "materials": [
        {
            "alphaMode": "OPAQUE",
            "doubleSided": false,
            "emissiveFactor": [
                0.13054333627223969,
                0.13054333627223969,
                0.13054333627223969
            ],
            "emissiveTexture": {
                "index": 0,
                "texCoord": 0
            },
            "name": "Mat_Water.002",
            "pbrMetallicRoughness": {
                "baseColorFactor": [
                    0.800000011920929,
                    0.800000011920929,
                    0.800000011920929,
                    1.0
                ],
                "baseColorTexture": {
                    "index": 0,
                    "texCoord": 0
                },
                "metallicFactor": 0.0,
                "roughnessFactor": 1.0
            }
        }
    ],
    "meshes": [
        {
            "name": "WaterRiver",
            "primitives": [
                {
                    "attributes": {
                        "NORMAL": 0,
                        "POSITION": 3,
                        "TEXCOORD_0": 1
                    },
                    "indices": 2,
                    "material": 0,
                    "mode": 4
                }
            ]
        }
    ],
    "nodes": [
        {
            "mesh": 0,
            "name": "WaterRiver",
            "rotation": [
                0.0,
                0.0,
                0.0,
                1.0
            ],
            "scale": [
                1.0,
                1.0,
                1.0
            ],
            "translation": [
                7.071533203125,
                7.661947250366211,
                -11.562406539916992
            ]
        }
    ],
    "samplers": [
        {
            "magFilter": 9729,
            "minFilter": 9987,
            "name": "WaterEmision.002",
            "wrapS": 10497,
            "wrapT": 10497
        }
    ],
    "scene": 0,
    "scenes": [
        {
            "extras": {
                "background_color": [
                    0.05087608844041824,
                    0.05087608844041824,
                    0.05087608844041824
                ],
                "frames_per_second": 30,
                "obj1": "Roundcube",
                "screencast_keys_box_draw": 0,
                "screencast_keys_font_size": 24,
                "screencast_keys_mouse": 2,
                "screencast_keys_pos_x": 75,
                "screencast_keys_pos_y": 4
            },
            "name": "Scene",
            "nodes": [
                0
            ]
        }
    ],
    "textures": [
        {
            "name": "WaterEmision.002",
            "sampler": 0,
            "source": 0
        }
    ]
}
